<svg width="30" height="48" viewBox="0 0 30 48" fill="none" xmlns="http://www.w3.org/2000/svg">
<g id="Layer 3">
<g id="Layer 1">
<path id="Vector" fill-rule="evenodd" clip-rule="evenodd" d="M12.165 11.2051L10.3507 13.6798C9.44145 14.9193 9.72319 17.1165 10.964 18.0038L14.3279 20.4081C14.9056 20.8208 14.9511 21.2293 14.6765 21.6645L15.166 22.0237L16.8736 19.6898C17.9265 18.2461 17.8341 16.2841 16.2731 15.1587L12.8765 12.7136C12.4709 12.4206 12.4282 12.0093 12.6531 11.553L12.165 11.2051Z" fill="#333365"/>
<path id="Vector_2" fill-rule="evenodd" clip-rule="evenodd" d="M15.0726 0.275391L12.248 4.14168C10.9233 5.9544 11.4056 9.05025 13.2156 10.3601L17.8588 13.7405C18.7993 14.4236 18.9217 16.1659 18.2373 17.0589L18.6314 17.3505L21.8345 12.8954C23.2717 10.8926 23.1877 7.93332 20.9309 6.31075L15.9634 2.7332C15.269 2.23319 14.9218 1.38387 15.5009 0.57399L15.074 0.275391H15.0726Z" fill="#333365"/>
<path id="Vector_3" fill-rule="evenodd" clip-rule="evenodd" d="M7.62891 24.5225H11.3727L12.033 26.7676H18.1517L18.8191 24.5225H22.5629L22.0719 22.8704H8.11983L7.62891 24.5225Z" fill="#333365"/>
<path id="Vector_4" d="M0.046875 38.8115V45.7201C0.0480032 46.2891 0.276841 46.8344 0.683286 47.2367C1.08973 47.639 1.64067 47.8656 2.21546 47.8667H27.5811C28.1552 47.8648 28.7052 47.6382 29.111 47.2362C29.5168 46.8343 29.7454 46.2898 29.7469 45.7216V38.8115H0.046875ZM18.9025 39.8735H19.4873V42.6229H18.9025V39.8735ZM4.39971 42.6243L4.16919 42.0116H3.09912L2.87002 42.6243H2.2425L3.36237 39.8749H3.93155L5.04288 42.6243H4.39971ZM5.23356 41.837C5.16956 41.6477 5.13829 41.4491 5.14107 41.2496C5.13901 41.0539 5.17176 40.8594 5.23783 40.675C5.29643 40.5097 5.38733 40.3575 5.50534 40.227C5.61971 40.1031 5.75941 40.0047 5.91516 39.9383C6.08124 39.8671 6.26068 39.8316 6.44165 39.8341C6.56741 39.8323 6.69283 39.8475 6.81447 39.8792C7.08512 39.9609 7.32751 40.1155 7.51456 40.3256L7.10902 40.713C7.02467 40.6154 6.92139 40.5355 6.80528 40.4782C6.68917 40.4209 6.56262 40.3872 6.43311 40.3792C6.3345 40.379 6.23716 40.4012 6.14852 40.444C6.06261 40.4869 5.98805 40.5491 5.93081 40.6257C5.86894 40.7079 5.82354 40.8011 5.79705 40.9003C5.76459 41.0144 5.74878 41.1325 5.75009 41.251C5.74905 41.3672 5.76486 41.4829 5.79705 41.5947C5.82597 41.6967 5.87427 41.7923 5.93935 41.8764C5.99465 41.9481 6.06444 42.0075 6.14425 42.051C6.23525 42.0959 6.33574 42.1186 6.43738 42.1172C6.57375 42.1087 6.707 42.0731 6.82922 42.0126C6.95144 41.9522 7.06013 41.868 7.14886 41.7651L7.56437 42.1299C7.39077 42.4722 6.77605 42.6637 6.426 42.6637C6.24686 42.666 6.06915 42.6319 5.90377 42.5637C5.75078 42.4993 5.61347 42.4033 5.50108 42.282C5.38191 42.1535 5.29084 42.002 5.23356 41.837ZM7.75077 45.6694C7.7056 45.7779 7.63542 45.8743 7.54587 45.9511C7.45208 46.0288 7.34307 46.0863 7.2257 46.1202C7.09081 46.1593 6.95076 46.1783 6.8102 46.1765H5.51531V43.4243H6.823C7.05702 43.4132 7.28816 43.4791 7.48041 43.6116C7.56172 43.6756 7.62627 43.7581 7.66862 43.852C7.71097 43.9458 7.72987 44.0484 7.72374 44.1511C7.72633 44.261 7.69879 44.3695 7.64405 44.4652C7.59133 44.5568 7.51465 44.6327 7.42207 44.6849C7.53453 44.7346 7.63244 44.8116 7.70666 44.9089C7.78555 45.0188 7.82557 45.1515 7.8205 45.2863C7.82453 45.4175 7.80078 45.548 7.75077 45.6694ZM7.93576 41.837C7.87224 41.6476 7.84145 41.4491 7.84469 41.2496C7.84217 41.054 7.87444 40.8595 7.94003 40.675C7.99863 40.5097 8.08953 40.3575 8.20754 40.227C8.32232 40.103 8.46252 40.0045 8.61878 39.9383C8.78486 39.8671 8.9643 39.8316 9.14527 39.8341C9.27103 39.8323 9.39645 39.8475 9.51809 39.8792C9.78874 39.9609 10.0311 40.1155 10.2182 40.3256L9.81264 40.713C9.72829 40.6154 9.62501 40.5355 9.5089 40.4782C9.39279 40.4209 9.26624 40.3872 9.13673 40.3792C9.03812 40.379 8.94078 40.4012 8.85214 40.444C8.76623 40.4869 8.69167 40.5491 8.63443 40.6257C8.57256 40.7079 8.52716 40.8011 8.50067 40.9003C8.46871 41.0145 8.45338 41.1326 8.45514 41.251C8.45363 41.3671 8.46897 41.4829 8.50067 41.5947C8.52959 41.6967 8.57789 41.7923 8.64297 41.8764C8.69837 41.948 8.76813 42.0074 8.84787 42.051C8.93617 42.0949 9.03367 42.1176 9.13247 42.1172C9.26884 42.1087 9.40208 42.0731 9.5243 42.0126C9.64652 41.9522 9.75522 41.868 9.84395 41.7651L10.2609 42.1299C10.0858 42.4722 9.47255 42.6637 9.12251 42.6637C8.94289 42.6661 8.76468 42.6321 8.59886 42.5637C8.44607 42.499 8.30884 42.403 8.19616 42.282C8.07954 42.1528 7.99092 42.0014 7.93576 41.837ZM10.5156 44.961C10.5372 45.2977 10.4277 45.6299 10.2096 45.8892C10.0995 46.0013 9.96617 46.0886 9.81886 46.1453C9.67154 46.2019 9.51364 46.2265 9.35587 46.2173C9.19499 46.2192 9.0352 46.191 8.88487 46.1342C8.7466 46.0823 8.62205 45.9999 8.52059 45.8934C8.4157 45.7804 8.33574 45.6471 8.28581 45.5018C8.22718 45.33 8.19879 45.1494 8.20185 44.968V43.4187H8.77103V44.9553C8.76075 45.1428 8.81547 45.3282 8.92614 45.4807C8.977 45.5438 9.04215 45.5941 9.11631 45.6276C9.19047 45.6612 9.27156 45.6769 9.35302 45.6737C9.43402 45.6766 9.5146 45.661 9.58859 45.6283C9.66259 45.5956 9.72804 45.5466 9.77991 45.4849C9.89205 45.3341 9.94742 45.1493 9.93644 44.9624V43.413H10.5056L10.5156 44.961ZM10.6764 39.8749H12.0339C12.1653 39.8744 12.2961 39.8925 12.4223 39.9285C12.54 39.9608 12.6499 40.0164 12.7454 40.0918C12.8393 40.1634 12.9153 40.2555 12.9673 40.3609C13.0288 40.5034 13.0554 40.6583 13.045 40.813C13.0346 40.9677 12.9875 41.1177 12.9076 41.251C12.7771 41.4007 12.6086 41.513 12.4195 41.5764L13.0684 42.6201H12.3953L11.7834 41.6538L11.2612 41.6285V42.6144H10.6764V39.8749ZM13.0712 45.699C13.0276 45.8079 12.9578 45.9046 12.8677 45.9807C12.765 46.0631 12.6464 46.124 12.5191 46.1596C12.3552 46.2051 12.1855 46.2264 12.0154 46.223C11.7909 46.2257 11.5685 46.18 11.3637 46.0892C11.1814 46.0104 11.0241 45.8844 10.9083 45.7244L11.3224 45.3652C11.413 45.4712 11.5282 45.5539 11.6582 45.6061C11.7831 45.6553 11.9165 45.6802 12.051 45.6793C12.1806 45.6876 12.3103 45.6634 12.428 45.6089C12.4815 45.5712 12.5202 45.5165 12.5376 45.4539C12.555 45.3912 12.5499 45.3246 12.5234 45.2652C12.502 45.2267 12.4706 45.1945 12.4323 45.1722C12.3716 45.137 12.3065 45.1095 12.2388 45.0905C12.1548 45.0638 12.0453 45.0356 11.9129 45.0074C11.7909 44.981 11.6707 44.9472 11.5529 44.906C11.4508 44.8711 11.3548 44.8208 11.2683 44.7567C11.1891 44.6968 11.1261 44.6184 11.0848 44.5286C11.0376 44.4207 11.0152 44.3038 11.0193 44.1863C11.0172 44.0693 11.0446 43.9536 11.099 43.8497C11.1535 43.7509 11.2299 43.6657 11.3224 43.6004C11.4198 43.5281 11.5298 43.4742 11.6468 43.4412C11.7757 43.4037 11.9095 43.3852 12.0438 43.3863C12.2444 43.3819 12.4435 43.4209 12.6273 43.5004C12.7973 43.5776 12.9517 43.685 13.0826 43.8173L12.6699 44.2032C12.5849 44.1164 12.4852 44.0449 12.3754 43.9919C12.2645 43.9428 12.144 43.9183 12.0225 43.9201C11.9583 43.9188 11.8942 43.9259 11.8318 43.9412C11.7865 43.953 11.7437 43.9726 11.7052 43.999C11.6757 44.0186 11.6517 44.0452 11.6354 44.0764C11.6201 44.1033 11.6104 44.1331 11.607 44.1638C11.6054 44.2026 11.6148 44.2411 11.634 44.275C11.6563 44.3096 11.6878 44.3374 11.7251 44.3553C11.7809 44.3839 11.8396 44.4065 11.9001 44.4229C11.9741 44.4426 12.0666 44.4666 12.1847 44.4934C12.3028 44.5201 12.411 44.5497 12.5248 44.5849C12.6326 44.6168 12.7348 44.6647 12.8279 44.7272C12.9188 44.7899 12.9945 44.8716 13.0499 44.9666C13.1108 45.08 13.1402 45.2073 13.1352 45.3356C13.1375 45.4597 13.1158 45.583 13.0712 45.699ZM13.4341 39.8749H15.4661V40.413H14.026V40.889H15.2412V41.4229H14.026V42.0863H15.5358V42.6243H13.4341V39.8749ZM14.1683 46.1737H13.5991V43.4243H14.1683V46.1737ZM17.0697 46.1737H16.5617L15.5144 44.6736L15.402 44.5074C15.3703 44.4622 15.3413 44.4152 15.3152 44.3666C15.3152 44.3919 15.3152 44.4314 15.3152 44.4821C15.3152 44.5328 15.3152 44.5891 15.3152 44.6497C15.3152 44.7103 15.3152 44.7638 15.3152 44.8215C15.3152 44.8793 15.3152 44.9272 15.3152 44.9624V46.1723H14.746V43.4243H15.3067L16.317 44.8779L16.428 45.0441C16.4601 45.0893 16.4895 45.1364 16.5162 45.1849C16.5162 45.1596 16.5162 45.1201 16.5162 45.0694C16.5162 45.0187 16.5162 44.9638 16.5162 44.906C16.5162 44.8483 16.5162 44.7877 16.5162 44.73C16.5162 44.6722 16.5162 44.6243 16.5162 44.5891V43.4257H17.0854L17.0697 46.1737ZM16.8392 42.6243H15.9641V39.8749H16.8805C17.076 39.8736 17.2707 39.8982 17.4596 39.9482C17.6289 39.9923 17.786 40.0737 17.9192 40.1862C18.0531 40.3015 18.1579 40.4462 18.2252 40.6088C18.3044 40.8121 18.3421 41.0289 18.3362 41.2468C18.3419 41.4613 18.2981 41.6742 18.2081 41.8693C18.1287 42.0336 18.0129 42.178 17.8694 42.2919C17.7268 42.4039 17.5634 42.4872 17.3885 42.537C17.2106 42.592 17.0256 42.6214 16.8392 42.6243ZM19.7876 46.1737H17.693V43.4243H19.725V43.9624H18.2792V44.4455H19.493V44.9793H18.2792V45.6427H19.7876V46.1737ZM22.0515 45.699C22.009 45.8085 21.9389 45.9055 21.848 45.9807C21.7453 46.0631 21.6267 46.124 21.4994 46.1596C21.336 46.205 21.1668 46.2263 20.9971 46.223C20.7726 46.2258 20.5502 46.1801 20.3454 46.0892C20.1611 46.0077 20.0031 45.8776 19.8886 45.7131L20.2998 45.3596C20.3907 45.4653 20.5058 45.5479 20.6357 45.6004C20.7606 45.6497 20.8939 45.6746 21.0284 45.6737C21.1581 45.6821 21.2878 45.6579 21.4055 45.6032C21.4451 45.5801 21.4773 45.5465 21.4987 45.5062C21.5201 45.4659 21.5297 45.4205 21.5264 45.3751C21.5273 45.3353 21.519 45.2958 21.5022 45.2596C21.4804 45.221 21.4484 45.1889 21.4098 45.1666C21.3492 45.1311 21.2841 45.1036 21.2162 45.0849C21.1323 45.0582 21.0241 45.03 20.8904 45.0018C20.7684 44.9752 20.6482 44.9413 20.5304 44.9004C20.4284 44.8652 20.3325 44.8149 20.2458 44.7511C20.1673 44.6904 20.1045 44.6122 20.0622 44.5229C20.015 44.4151 19.9927 44.2981 19.9968 44.1807C19.9946 44.0636 20.022 43.948 20.0764 43.844C20.1288 43.7444 20.2032 43.6577 20.2942 43.5905C20.3916 43.5183 20.5015 43.4643 20.6186 43.4314C20.9433 43.3415 21.2891 43.3623 21.6004 43.4905C21.7699 43.5681 21.9237 43.6755 22.0544 43.8074L21.6431 44.1933C21.5575 44.1065 21.4574 44.0351 21.3471 43.9821C21.2367 43.9329 21.1167 43.9084 20.9957 43.9102C20.931 43.9088 20.8664 43.9159 20.8036 43.9314C20.7584 43.9436 20.7157 43.9631 20.6769 43.9891C20.6479 44.0088 20.6243 44.0354 20.6086 44.0666C20.5945 44.0951 20.5872 44.1264 20.5873 44.1581C20.585 44.1982 20.595 44.2379 20.6161 44.2722C20.6372 44.3064 20.6684 44.3334 20.7054 44.3497C20.7616 44.3784 20.8207 44.4011 20.8818 44.4173C20.9544 44.437 21.0483 44.461 21.1664 44.4877C21.2845 44.5145 21.3941 44.5441 21.5065 44.5793C21.6146 44.613 21.7168 44.6629 21.8096 44.7272C21.9005 44.7899 21.9763 44.8716 22.0316 44.9666C22.0925 45.08 22.1219 45.2073 22.117 45.3356C22.1195 45.4598 22.0972 45.5833 22.0515 45.699ZM22.2151 40.4172H21.3742V42.6243H20.7893V40.4172H19.9484V39.8749H22.2151V40.4172ZM24.5018 45.699C24.4588 45.8082 24.3888 45.905 24.2984 45.9807C24.1956 46.0631 24.077 46.124 23.9497 46.1596C23.7859 46.2051 23.6161 46.2264 23.446 46.223C23.2215 46.2257 22.9992 46.18 22.7943 46.0892C22.6121 46.0104 22.4547 45.8844 22.3389 45.7244L22.7502 45.3708C22.8407 45.4769 22.956 45.5595 23.086 45.6117C23.2109 45.661 23.3443 45.6858 23.4787 45.6849C23.6084 45.6933 23.7381 45.6691 23.8558 45.6145C23.9093 45.5769 23.948 45.5221 23.9654 45.4595C23.9827 45.3969 23.9777 45.3302 23.9512 45.2708C23.9298 45.2323 23.8984 45.2002 23.8601 45.1779C23.7994 45.1426 23.7343 45.1151 23.6666 45.0962C23.5826 45.0694 23.473 45.0413 23.3407 45.0131C23.2187 44.9867 23.0985 44.9528 22.9807 44.9117C22.8786 44.8768 22.7826 44.8264 22.6961 44.7624C22.6169 44.7024 22.5538 44.624 22.5125 44.5342C22.4654 44.4263 22.443 44.3094 22.4471 44.1919C22.445 44.0749 22.4724 43.9592 22.5268 43.8553C22.5791 43.7556 22.6535 43.669 22.7445 43.6018C22.8415 43.5297 22.9509 43.4758 23.0675 43.4426C23.3927 43.3528 23.739 43.3736 24.0508 43.5018C24.2202 43.5794 24.374 43.6867 24.5047 43.8187L24.0935 44.2046C24.0076 44.1181 23.9075 44.0467 23.7975 43.9933C23.6866 43.9441 23.5661 43.9195 23.4446 43.9215C23.3804 43.9202 23.3162 43.9273 23.2539 43.9426C23.2088 43.9549 23.166 43.9744 23.1273 44.0004C23.0978 44.02 23.0738 44.0466 23.0575 44.0779C23.0446 44.1067 23.0378 44.1378 23.0376 44.1694C23.036 44.2083 23.0454 44.2468 23.0647 44.2807C23.087 44.3152 23.1185 44.343 23.1557 44.361C23.2115 44.3895 23.2702 44.4121 23.3307 44.4286C23.4047 44.4483 23.4987 44.4722 23.6153 44.499C23.732 44.5257 23.8416 44.5553 23.9554 44.5905C24.0641 44.6237 24.1669 44.6736 24.2599 44.7384C24.3508 44.8011 24.4266 44.8829 24.4819 44.9779C24.544 45.0909 24.574 45.2184 24.5687 45.3469C24.5686 45.4674 24.5459 45.5867 24.5018 45.699ZM24.6854 42.6243H22.5908V39.8749H24.6228V40.413H23.1756V40.889H24.3909V41.4229H23.1756V42.0863H24.6854V42.6243ZM27.3677 41.8722C27.2883 42.0364 27.1725 42.1808 27.029 42.2947C26.8864 42.4067 26.723 42.49 26.5481 42.5398C26.3693 42.5921 26.1838 42.6186 25.9974 42.6187H25.1251V39.8749H26.0415C26.237 39.8736 26.4318 39.8982 26.6206 39.9482C26.7898 39.9926 26.9469 40.074 27.0802 40.1862C27.2141 40.3015 27.3189 40.4462 27.3862 40.6088C27.4642 40.8124 27.5014 41.0291 27.4957 41.2468C27.502 41.4622 27.4581 41.6761 27.3677 41.8722Z" fill="#333365"/>
<path id="Vector_5" d="M3.69636 40.7552C3.66933 40.6792 3.64941 40.6144 3.63518 40.5623C3.62095 40.6158 3.60103 40.6792 3.57541 40.7552C3.5498 40.8313 3.51992 40.9102 3.48861 40.9904L3.30078 41.4876H3.96957L3.78174 40.9904C3.75186 40.9102 3.72198 40.8313 3.69636 40.7552Z" fill="#333365"/>
<path id="Vector_6" d="M12.4456 40.7593C12.4506 40.7089 12.4431 40.6581 12.4238 40.6112C12.4044 40.5643 12.3738 40.5228 12.3346 40.4903C12.2434 40.432 12.1357 40.4038 12.0273 40.41H11.2617V41.1143H12.0344C12.3062 41.1171 12.4456 40.9974 12.4456 40.7593Z" fill="#333365"/>
<path id="Vector_7" d="M16.8596 40.4102H16.5508V42.0905H16.8354C16.9707 42.0927 17.1054 42.0723 17.2338 42.0299C17.3407 41.995 17.4381 41.9362 17.5184 41.8581C17.5922 41.7833 17.6477 41.6927 17.6806 41.5933C17.7184 41.4826 17.7367 41.3664 17.7347 41.2496C17.7524 41.0215 17.6793 40.7956 17.5312 40.62C17.3918 40.4792 17.1698 40.4102 16.8596 40.4102Z" fill="#333365"/>
<path id="Vector_8" d="M26.0178 40.4102H25.709V42.0905H25.9936C26.1294 42.0928 26.2646 42.0724 26.3934 42.0299C26.5002 41.9947 26.5975 41.9359 26.678 41.8581C26.7513 41.7828 26.8067 41.6924 26.8402 41.5933C26.8781 41.4826 26.8964 41.3664 26.8943 41.2496C26.9122 41.0213 26.8386 40.7951 26.6894 40.62C26.5471 40.4792 26.328 40.4102 26.0178 40.4102Z" fill="#333365"/>
<path id="Vector_9" d="M7.07883 44.3809C7.1026 44.3562 7.12113 44.327 7.13335 44.2951C7.14557 44.2631 7.15122 44.2291 7.14998 44.195C7.15251 44.1584 7.14652 44.1217 7.13246 44.0878C7.11839 44.0538 7.09664 44.0235 7.06887 43.9992C6.98933 43.9477 6.89468 43.9239 6.79993 43.9316H6.07422V44.4542H6.82839C6.87295 44.4589 6.91801 44.4548 6.96099 44.4423C7.00397 44.4297 7.04402 44.4089 7.07883 44.3809Z" fill="#333365"/>
<path id="Vector_10" d="M6.83266 44.9414H6.07422V45.6456H6.83266C6.94381 45.6547 7.05414 45.6203 7.14001 45.5499C7.17365 45.5154 7.19983 45.4746 7.21696 45.4298C7.23409 45.385 7.2418 45.3372 7.23962 45.2893C7.23962 45.0583 7.10302 44.9414 6.83266 44.9414Z" fill="#333365"/>
<path id="Vector_11" d="M9.38319 32.0352C10.0406 31.6549 10.4447 31.0943 10.4447 30.3267C10.4447 28.7928 9.17402 28.1675 7.78948 28.1675H3.92188V36.3128H7.75248C9.39031 36.3128 11.1249 35.6085 10.8474 33.7394C10.6866 32.6704 10.2526 32.4155 9.38319 32.0352ZM5.66927 29.7239H7.67991C8.93638 29.7239 8.98192 31.4619 7.7596 31.4619H5.66927V29.7239ZM7.90616 34.7733H5.66927V32.9155H7.90616C9.56106 32.9155 9.46145 34.7733 7.90616 34.7733Z" fill="#333365"/>
<path id="Vector_12" d="M17.0687 32.0354C17.7261 31.6551 18.1303 31.0946 18.1303 30.3269C18.1303 28.7931 16.8596 28.1677 15.475 28.1677H11.6074V36.313H15.4409C17.0787 36.313 18.8133 35.6088 18.5358 33.7397C18.3722 32.6707 17.9382 32.4157 17.0687 32.0354ZM13.3548 29.7241H15.3655C16.6219 29.7241 16.6675 31.4622 15.4451 31.4622H13.3548V29.7241ZM15.5917 34.7735H13.3548V32.9157H15.5917C17.2466 32.9157 17.147 34.7735 15.5917 34.7735Z" fill="#333365"/>
<path id="Vector_13" d="M26.2166 33.7409C26.0558 32.6719 25.6218 32.4169 24.7523 32.0366C25.4097 31.6564 25.8139 31.0958 25.8139 30.3282C25.8139 28.7943 24.5432 28.1689 23.1586 28.1689H19.291V36.3142H23.1245C24.7594 36.3128 26.494 35.6043 26.2166 33.7409ZM21.0384 29.7253H23.0491C24.3055 29.7253 24.3511 31.4634 23.1287 31.4634H21.0384V29.7253ZM23.2753 34.7733H21.0384V32.9155H23.2753C24.9302 32.9155 24.8306 34.7733 23.2753 34.7733Z" fill="#333365"/>
<path id="Vector_14" fill-rule="evenodd" clip-rule="evenodd" d="M26.9598 36.0453C26.9605 36.0146 26.9556 35.9841 26.9455 35.9552C26.9364 35.9279 26.9208 35.9033 26.9 35.8833C26.8752 35.8585 26.8463 35.838 26.8146 35.8228C26.7718 35.8014 26.7276 35.7831 26.6823 35.7678C26.6353 35.7509 26.5955 35.7354 26.5656 35.7213C26.5411 35.7102 26.5182 35.696 26.4973 35.6791C26.4829 35.6669 26.4717 35.6514 26.4646 35.634C26.4586 35.6173 26.4557 35.5996 26.456 35.5819C26.4565 35.5641 26.4598 35.5465 26.466 35.5298C26.4739 35.5136 26.485 35.4993 26.4987 35.4875C26.5159 35.4738 26.5358 35.4637 26.5571 35.458C26.6262 35.4397 26.6995 35.4437 26.7662 35.4692C26.8043 35.4851 26.8398 35.5064 26.8715 35.5326L26.9398 35.4523C26.9009 35.4223 26.8578 35.3981 26.8118 35.3805C26.7595 35.3611 26.7039 35.352 26.6481 35.3537C26.6073 35.3536 26.5666 35.3588 26.5272 35.3692C26.493 35.3792 26.4607 35.395 26.4318 35.4157C26.4066 35.4359 26.3862 35.4614 26.3721 35.4904C26.3574 35.5212 26.3501 35.5549 26.3507 35.5889C26.35 35.6187 26.3548 35.6483 26.365 35.6763C26.3741 35.7027 26.3897 35.7264 26.4105 35.7453C26.4352 35.7688 26.4635 35.7883 26.4944 35.803C26.5366 35.8242 26.5804 35.8421 26.6254 35.8566C26.6626 35.8693 26.6992 35.8838 26.7349 35.9002C26.7598 35.9126 26.7832 35.9277 26.8046 35.9453C26.821 35.9577 26.8338 35.9743 26.8416 35.9932C26.8499 36.0113 26.8538 36.0311 26.853 36.0509C26.8536 36.0731 26.8489 36.0952 26.8393 36.1153C26.8296 36.1353 26.8153 36.1529 26.7975 36.1664C26.7534 36.1968 26.7003 36.2117 26.6467 36.2087C26.5997 36.2095 26.5533 36.1989 26.5115 36.1777C26.4685 36.1572 26.4287 36.1306 26.3934 36.0988L26.3223 36.1749C26.3638 36.2132 26.412 36.2437 26.4646 36.265C26.5214 36.2901 26.5831 36.3026 26.6453 36.3016C26.6906 36.3021 26.7358 36.2955 26.779 36.2819C26.8149 36.2704 26.8482 36.2522 26.8772 36.2284C26.9043 36.2065 26.9258 36.1785 26.9398 36.1467C26.9542 36.1148 26.9615 36.0802 26.9612 36.0453H26.9598Z" fill="#333365"/>
<path id="Vector_15" fill-rule="evenodd" clip-rule="evenodd" d="M27.9493 36.2874V35.3677H27.8283L27.6006 35.9184L27.5821 35.9635L27.5622 36.0128L27.5451 36.0607C27.5451 36.0747 27.5352 36.0874 27.5323 36.0973L27.5209 36.0607L27.5024 36.0142C27.4967 35.9974 27.49 35.981 27.4825 35.9649L27.464 35.9184L27.2392 35.3677H27.1211V36.2874H27.2235V35.5719L27.2335 35.6043C27.2335 35.617 27.242 35.6297 27.2477 35.6437C27.2534 35.6578 27.2577 35.6705 27.262 35.686L27.279 35.724L27.5295 36.317L27.7856 35.724L27.8013 35.6846L27.8183 35.6437C27.8183 35.6297 27.8283 35.617 27.8326 35.6043L27.8425 35.5719V36.2931L27.9493 36.2874Z" fill="#333365"/>
</g>
</g>
</svg>
