<svg width="66" height="52" viewBox="0 0 66 52" fill="none" xmlns="http://www.w3.org/2000/svg">
<g id="Layer 2">
<g id="Layer 1">
<g id="COMPLIANT">
<g id="Group">
<path id="Vector" d="M35.6573 49.7948L36.451 50.0345C36.4072 50.2356 36.3213 50.4251 36.1989 50.5908C36.0876 50.7371 35.9409 50.8528 35.7725 50.9272C35.5663 51.0099 35.3451 51.0487 35.123 51.0412C34.8558 51.0508 34.5896 51.0036 34.342 50.9028C34.1236 50.7949 33.9419 50.6254 33.8195 50.4153C33.6626 50.1446 33.5862 49.8349 33.5991 49.5225C33.5991 49.0401 33.7282 48.6687 33.9864 48.4082C34.2446 48.1477 34.6096 48.0177 35.0813 48.0183C35.4508 48.0183 35.7411 48.0928 35.9521 48.2417C36.1795 48.4133 36.3447 48.6539 36.4229 48.9273L35.6228 49.1083C35.6036 49.0383 35.5729 48.972 35.5321 48.912C35.4852 48.8453 35.423 48.7908 35.3507 48.7528C35.2279 48.694 35.0881 48.6809 34.9565 48.7159C34.8249 48.7509 34.7102 48.8317 34.6332 48.9436C34.5509 49.0642 34.5095 49.2563 34.5089 49.5198C34.5089 49.8436 34.5588 50.0625 34.6568 50.1855C34.7608 50.2948 34.9033 50.3595 35.0542 50.366C35.2051 50.3726 35.3527 50.3206 35.4659 50.2208C35.566 50.0979 35.632 49.951 35.6573 49.7948Z" fill="#225E63"/>
<path id="Vector_2" d="M36.7788 49.5316C36.7788 49.0552 36.9122 48.6837 37.1789 48.4172C37.4456 48.1507 37.8169 48.0177 38.2928 48.0183C38.7808 48.0183 39.157 48.1489 39.4213 48.41C39.6855 48.6711 39.8174 49.0371 39.8168 49.5081C39.8278 49.798 39.7683 50.0863 39.6435 50.3483C39.5297 50.5648 39.3534 50.7422 39.1373 50.8576C38.8854 50.987 38.6041 51.0493 38.3209 51.0385C38.0389 51.0483 37.7583 50.9945 37.5 50.8811C37.2781 50.7715 37.0945 50.5978 36.973 50.3827C36.8333 50.1213 36.7663 49.8275 36.7788 49.5316ZM37.6859 49.5316C37.6859 49.8264 37.741 50.0375 37.851 50.1647C37.9092 50.2254 37.9791 50.2737 38.0565 50.3067C38.1339 50.3396 38.2172 50.3566 38.3014 50.3566C38.3856 50.3566 38.4689 50.3396 38.5463 50.3067C38.6237 50.2737 38.6936 50.2254 38.7518 50.1647C38.8588 50.039 38.9115 49.812 38.9115 49.4854C38.9115 49.2093 38.8558 49.0082 38.7446 48.8821C38.6882 48.8184 38.6181 48.7682 38.5396 48.7351C38.4611 48.7021 38.3761 48.6871 38.291 48.6913C38.2078 48.6884 38.125 48.7043 38.0488 48.7378C37.9726 48.7713 37.905 48.8216 37.851 48.8848C37.7377 49.025 37.6859 49.2376 37.6859 49.5361V49.5316Z" fill="#225E63"/>
<path id="Vector_3" d="M40.293 48.0681H41.484L41.9439 49.8473L42.3975 48.0681H43.5876V50.9915H42.8483V48.7619L42.2768 50.9915H41.6056L41.035 48.7619V50.9915H40.293V48.0681Z" fill="#225E63"/>
<path id="Vector_4" d="M44.1641 48.0681H45.669C45.9967 48.0681 46.2423 48.1459 46.4056 48.3015C46.5688 48.4571 46.6505 48.6784 46.6505 48.9654C46.6576 49.093 46.6375 49.2206 46.5915 49.3399C46.5455 49.4591 46.4747 49.5673 46.3838 49.6573C46.2024 49.8238 45.9302 49.907 45.5674 49.907H45.0712V50.9924H44.1641V48.0681ZM45.0712 49.3145H45.2934C45.4676 49.3145 45.5901 49.2847 45.6608 49.2241C45.6949 49.1958 45.7222 49.1603 45.7406 49.12C45.759 49.0797 45.768 49.0358 45.7669 48.9916C45.7681 48.9487 45.7606 48.9059 45.745 48.8659C45.7295 48.8258 45.7061 48.7892 45.6762 48.7583C45.6145 48.694 45.4948 48.6624 45.3297 48.6624H45.0721L45.0712 49.3145Z" fill="#225E63"/>
<path id="Vector_5" d="M47.125 48.0681H48.0321V50.2715H49.4463V50.9951H47.125V48.0681Z" fill="#225E63"/>
<path id="Vector_6" d="M49.8945 48.0681H50.8017V50.9915H49.8945V48.0681Z" fill="#225E63"/>
<path id="Vector_7" d="M53.2526 50.5085H52.2239L52.0815 50.9915H51.1562L52.2584 48.0681H53.2462L54.3475 50.9915H53.3986L53.2526 50.5085ZM53.0648 49.8753L52.7437 48.8261L52.4235 49.8771L53.0648 49.8753Z" fill="#225E63"/>
<path id="Vector_8" d="M54.6426 48.0681H55.4889L56.5929 49.6818V48.0681H57.4465V50.9915H56.5929L55.4944 49.386V50.9915H54.6426V48.0681Z" fill="#225E63"/>
<path id="Vector_9" d="M57.8418 48.0681H60.5958V48.7917H59.6724V50.9933H58.7652V48.7899H57.8418V48.0681Z" fill="#225E63"/>
</g>
</g>
<g id="Rectangle-3-+-Letters">
<path id="Rectangle-3" d="M56.553 25.8026L59.923 24.7434L58.8344 22.3193C58.018 23.3206 57.2188 24.6123 56.553 25.8026ZM55.4019 14.7078L48.7917 0.0239258L0.402344 2.7637L13.8087 39.2383L39.6153 31.1275C37.9825 28.7757 37.372 25.9781 39.2697 24.615C41.3932 23.0845 44.5881 24.8547 46.6409 27.3701C48.6103 24.0659 54.1364 16.4445 55.4019 14.7078Z" fill="#225E63"/>
<g id="Letters">
<path id="Oval-1" d="M47.2905 10.6327C49.3161 10.6327 50.958 9.08872 50.958 7.18381C50.958 5.2789 49.3161 3.73218 47.2905 3.73218C45.2649 3.73218 43.623 5.2789 43.623 7.18381C43.623 9.08872 45.2649 10.6327 47.2905 10.6327ZM44.2898 12.1288H50.2949V27.7543H44.2898V12.1288Z" fill="#FEFEFE"/>
<path id="Path-3" d="M41.3261 16.6892C41.3687 16.7146 41.4041 16.6938 41.4041 16.644V12.6868C41.4029 12.6596 41.395 12.6332 41.3811 12.6098C41.3671 12.5865 41.3476 12.5669 41.3243 12.5529C41.3243 12.5529 40.5378 12.0409 38.1349 11.8989C38.0069 11.8275 35.916 11.8175 35.3364 11.8989C26.6081 12.5963 26.2852 18.8926 26.2852 19.1803V20.7098C26.2852 20.898 26.2852 27.3354 35.3364 27.9061C36.2199 27.9731 37.9525 27.9061 38.1349 27.9061C40.2212 27.9061 41.6645 27.2802 41.6645 27.2802C41.6881 27.2688 41.7082 27.2513 41.7227 27.2295C41.7372 27.2077 41.7456 27.1824 41.747 27.1563V23.4505C41.747 23.4008 41.7143 23.3827 41.6708 23.4089C41.6708 23.4089 41.0231 23.9281 38.1739 24.2058C37.3665 24.2962 36.9828 24.2537 36.6916 24.2058C32.6522 23.5283 32.4599 20.5769 32.4599 20.5769C32.4545 20.528 32.4499 20.4475 32.4499 20.396V19.2653C32.4501 19.2048 32.4541 19.1444 32.4617 19.0844C32.4617 19.0844 32.7339 15.9231 36.6925 15.5894H38.1739C39.2841 15.7571 40.3532 16.1302 41.3261 16.6892Z" fill="#FEFEFE"/>
<path id="Path-1" d="M9.63867 27.6928C9.63867 27.7168 9.64823 27.7398 9.66524 27.7568C9.68225 27.7738 9.70533 27.7833 9.72938 27.7833H15.5758C15.5998 27.7833 15.6229 27.7738 15.6399 27.7568C15.6569 27.7398 15.6665 27.7168 15.6665 27.6928V23.1576C15.6663 23.146 15.6686 23.1344 15.6732 23.1237C15.6778 23.113 15.6845 23.1034 15.6931 23.0955C15.7016 23.0875 15.7118 23.0815 15.7228 23.0777C15.7338 23.0739 15.7456 23.0725 15.7572 23.0735C15.7572 23.0735 25.0887 23.7464 25.0887 17.4999C25.0887 12.5712 19.2342 12.0303 17.3065 12.1207C17.2675 12.1207 9.73211 12.1207 9.73211 12.1207C9.70805 12.1207 9.68497 12.1302 9.66796 12.1472C9.65095 12.1642 9.64139 12.1872 9.64139 12.2112L9.63867 27.6928ZM15.5613 19.6101V15.5244H16.9918C16.9918 15.5244 19.0718 15.6149 19.2342 17.0286C19.2723 17.139 19.2632 17.83 19.2342 17.868C18.962 19.5287 17.1587 19.6101 17.1587 19.6101H15.5613Z" fill="#FEFEFE"/>
</g>
<path id="Path-7" d="M47.4553 35.2998C47.9434 35.2998 48.3162 35.2998 48.933 35.0285C51.0638 33.9114 58.2364 16.4452 65.8054 11.0733C65.8596 11.0353 65.9079 10.9896 65.9488 10.9376C65.9785 10.8954 65.9963 10.8461 66.0005 10.7947C66.0005 10.7947 66.0005 10.4329 64.8793 10.4329C58.1439 10.252 51.141 24.328 47.4626 29.898C47.4163 29.9587 47.1632 29.898 47.1632 29.898C47.1632 29.898 44.6959 26.9955 42.5533 25.882C42.3796 25.8173 42.194 25.7904 42.009 25.8033C41.8394 25.8033 40.8424 26.0032 40.3762 26.4925C39.8274 27.0696 39.8382 27.3971 39.8428 28.0972C39.8531 28.238 39.8887 28.3759 39.948 28.5042C40.4723 29.4177 42.8662 32.6993 44.8274 34.5102C45.124 34.7236 45.5894 35.2998 47.4553 35.2998Z" fill="#2BBC5D"/>
</g>
<g id="DSS">
<g id="Group_2">
<path id="Vector_10" d="M33.4961 36.9395H37.8584C38.7184 36.9395 39.4138 37.0558 39.9448 37.2886C40.4585 37.5092 40.9094 37.8532 41.2574 38.2899C41.6098 38.7394 41.8658 39.2563 42.0094 39.8086C42.1674 40.4078 42.2458 41.0251 42.2425 41.6447C42.2425 42.6566 42.127 43.4405 41.896 43.9965C41.6823 44.5291 41.3533 45.0081 40.9327 45.3994C40.5605 45.7557 40.1059 46.0148 39.6092 46.1537C39.0394 46.3157 38.4508 46.4027 37.8584 46.4124H33.4961V36.9395ZM36.4324 39.085V44.2624H37.1527C37.7659 44.2624 38.2022 44.1946 38.4617 44.0589C38.7211 43.9232 38.9243 43.6862 39.0712 43.3479C39.2182 43.0097 39.2917 42.4612 39.2917 41.7026C39.2917 40.6986 39.1275 40.0115 38.7991 39.6412C38.4707 39.271 37.9265 39.0856 37.1663 39.085H36.4324Z" fill="#225E63"/>
<path id="Vector_11" d="M43.0469 43.2801L45.8408 43.1056C45.9013 43.5578 46.0243 43.9025 46.21 44.1394C46.5124 44.523 46.9445 44.7147 47.5063 44.7147C47.9254 44.7147 48.2486 44.6167 48.476 44.4207C48.5802 44.3396 48.6648 44.2363 48.7237 44.1182C48.7826 44.0002 48.8142 43.8705 48.8162 43.7387C48.8136 43.6118 48.7833 43.487 48.7272 43.3731C48.671 43.2592 48.5906 43.1589 48.4914 43.0793C48.2755 42.8858 47.7745 42.7028 46.9883 42.5303C45.7002 42.2415 44.7819 41.8579 44.2334 41.3798C43.9657 41.1569 43.7518 40.8767 43.6076 40.5601C43.4634 40.2435 43.3927 39.8985 43.4007 39.5508C43.402 39.059 43.5498 38.5786 43.8252 38.1705C44.1082 37.737 44.5339 37.3966 45.1024 37.1493C45.6709 36.9021 46.4498 36.7782 47.4391 36.7776C48.6529 36.7776 49.5787 37.0028 50.2167 37.4533C50.8548 37.9037 51.2339 38.6201 51.3543 39.6024L48.5866 39.7634C48.5129 39.3371 48.3584 39.0271 48.1231 38.8336C47.8879 38.64 47.5625 38.5429 47.1471 38.5423C46.806 38.5423 46.5484 38.6147 46.376 38.7585C46.2951 38.8206 46.2296 38.9005 46.1846 38.992C46.1396 39.0834 46.1163 39.184 46.1166 39.2858C46.1192 39.3654 46.1398 39.4433 46.1769 39.5138C46.214 39.5842 46.2665 39.6455 46.3306 39.6928C46.4685 39.8177 46.7969 39.934 47.3158 40.042C48.599 40.3176 49.5186 40.5965 50.0743 40.8787C50.6301 41.1609 51.0362 41.5109 51.2926 41.9288C51.5466 42.3525 51.6779 42.8381 51.6718 43.3317C51.6747 43.9297 51.4985 44.5149 51.1656 45.0123C50.8201 45.5321 50.3276 45.9379 49.7505 46.1782C49.1457 46.4435 48.3829 46.5762 47.4618 46.5762C45.8459 46.5762 44.7272 46.266 44.1055 45.6455C43.4838 45.025 43.1309 44.2365 43.0469 43.2801Z" fill="#225E63"/>
</g>
<g id="Group_3">
<path id="Vector_12" d="M52.4062 43.2801L55.2002 43.1056C55.2607 43.5578 55.3837 43.9025 55.5694 44.1394C55.8717 44.523 56.3038 44.7147 56.8656 44.7147C57.2847 44.7147 57.608 44.6167 57.8354 44.4207C57.9396 44.3396 58.0242 44.2363 58.0831 44.1182C58.142 44.0002 58.1735 43.8705 58.1755 43.7387C58.173 43.6118 58.1426 43.487 58.0865 43.3731C58.0304 43.2592 57.9499 43.1589 57.8508 43.0793C57.6349 42.8858 57.1339 42.7028 56.3477 42.5303C55.0596 42.2415 54.1413 41.8579 53.5928 41.3798C53.3255 41.1566 53.1122 40.8764 52.9685 40.5597C52.8248 40.2431 52.7545 39.8983 52.7627 39.5508C52.7641 39.059 52.9119 38.5786 53.1873 38.1705C53.4703 37.737 53.896 37.3966 54.4645 37.1493C55.033 36.9021 55.8119 36.7782 56.8012 36.7776C58.015 36.7776 58.9408 37.0028 59.5788 37.4533C60.2168 37.9037 60.596 38.6201 60.7164 39.6024L57.9488 39.7634C57.8744 39.3371 57.7199 39.0271 57.4852 38.8336C57.2506 38.64 56.9252 38.5429 56.5092 38.5423C56.1681 38.5423 55.9105 38.6147 55.7381 38.7585C55.6572 38.8206 55.5917 38.9005 55.5467 38.992C55.5017 39.0834 55.4784 39.184 55.4787 39.2858C55.4813 39.3654 55.5019 39.4433 55.539 39.5138C55.5761 39.5842 55.6286 39.6455 55.6927 39.6928C55.8306 39.8177 56.159 39.934 56.6779 40.042C57.9618 40.3176 58.881 40.5965 59.4355 40.8787C59.9901 41.1609 60.3943 41.5109 60.6483 41.9288C60.9024 42.3525 61.0336 42.8381 61.0275 43.3317C61.0305 43.9297 60.8542 44.5149 60.5213 45.0123C60.1766 45.5317 59.6851 45.9375 59.109 46.1782C58.5042 46.4435 57.7413 46.5762 56.8203 46.5762C55.2038 46.5762 54.085 46.266 53.464 45.6455C52.8429 45.025 52.4903 44.2365 52.4062 43.2801Z" fill="#225E63"/>
</g>
</g>
</g>
</g>
</svg>
