<svg width="105" height="33" viewBox="0 0 105 33" fill="none" xmlns="http://www.w3.org/2000/svg">
<g id="seal" clip-path="url(#clip0_250_706)">
<g id="Group">
<path id="Vector" d="M20.0777 38.8069C17.3634 38.8181 14.7261 37.9058 12.599 36.2197C10.4718 34.5336 8.98152 32.1742 8.37285 29.529V29.4343L7.35251 29.3833C5.67032 29.299 4.08498 28.571 2.92493 27.3499C1.76487 26.1287 1.11899 24.5082 1.1211 22.8239V6.25781H100.131C101.188 6.25974 102.201 6.68038 102.948 7.4276C103.695 8.17483 104.116 9.18772 104.118 10.2445V34.813C104.116 35.8704 103.696 36.884 102.949 37.6324C102.202 38.3808 101.189 38.8031 100.131 38.8069H20.0777Z" fill="white"/>
<path id="Vector_2" d="M100.132 6.38888C101.156 6.38887 102.137 6.79484 102.861 7.51767C103.585 8.2405 103.993 9.22113 103.995 10.2443V34.8128C103.993 35.8367 103.586 36.8181 102.862 37.5421C102.138 38.2661 101.156 38.6737 100.132 38.6756H20.0352C17.3571 38.6791 14.7572 37.7732 12.6612 36.1062C10.5652 34.4392 9.09733 32.1099 8.49798 29.4997L8.45425 29.3175H8.26476L7.33916 29.2738C5.68922 29.1914 4.13435 28.4769 2.99715 27.2787C1.85994 26.0804 1.22772 24.4903 1.23165 22.8383V6.38888H100.132ZM100.132 6.13379H0.976563V22.8383C0.976274 24.553 1.63503 26.2022 2.81658 27.4448C3.99813 28.6874 5.61207 29.4283 7.32458 29.5143L8.25018 29.5581C8.87547 32.2215 10.3814 34.596 12.5242 36.297C14.667 37.998 17.3212 38.9259 20.0571 38.9307H100.132C100.673 38.9307 101.209 38.8242 101.708 38.6172C102.208 38.4103 102.662 38.107 103.044 37.7246C103.427 37.3422 103.73 36.8883 103.937 36.3887C104.144 35.8891 104.25 35.3536 104.25 34.8128V10.2443C104.248 9.15348 103.814 8.10796 103.042 7.3373C102.27 6.56663 101.223 6.13379 100.132 6.13379V6.13379Z" fill="#929497"/>
</g>
<g id="Group_2">
<path id="Vector_3" d="M4.41797 9.57397V22.8166C4.41866 23.8233 4.80649 24.7911 5.50115 25.5197C6.1958 26.2482 7.14405 26.6817 8.14953 26.7304C8.09905 23.9313 9.0479 21.2058 10.8258 19.0433C12.6036 16.8807 15.0941 15.4226 17.8501 14.9308C18.5355 14.8071 19.2308 14.7461 19.9273 14.7486C22.6867 14.752 25.3567 15.7278 27.4681 17.5046C29.5794 19.2814 30.997 21.7454 31.4718 24.4638C31.6052 25.2116 31.6637 25.9709 31.6467 26.7304C32.6502 26.6799 33.5958 26.2453 34.2878 25.5168C34.9797 24.7882 35.3649 23.8214 35.3636 22.8166V9.57397H4.41797Z" fill="#5FC323"/>
<path id="Vector_4" d="M16.1236 26.5408C16.1236 26.0431 16.2216 25.5503 16.412 25.0905C16.6025 24.6307 16.8817 24.2129 17.2336 23.861C17.5855 23.5091 18.0033 23.2299 18.4631 23.0394C18.9229 22.849 19.4157 22.751 19.9134 22.751C20.4111 22.751 20.9039 22.849 21.3637 23.0394C21.8235 23.2299 22.2413 23.5091 22.5933 23.861C22.9452 24.2129 23.2243 24.6307 23.4148 25.0905C23.6052 25.5503 23.7033 26.0431 23.7033 26.5408H16.1236ZM10.8906 26.5408C10.9041 28.9154 11.8553 31.1884 13.5371 32.8648C15.219 34.5411 17.4951 35.485 19.8697 35.4907C21.0546 35.4949 22.2284 35.2624 23.3222 34.8068C24.4161 34.3513 25.4079 33.6818 26.2396 32.8378L24.4102 31.0158C23.3653 32.068 21.9874 32.7246 20.5121 32.8734C19.0367 33.0222 17.5554 32.6541 16.3214 31.8318C15.0874 31.0095 14.1773 29.7842 13.7466 28.3652C13.3159 26.9463 13.3914 25.4218 13.9601 24.0524C14.5289 22.6829 15.5556 21.5535 16.8648 20.8571C18.174 20.1608 19.6844 19.9407 21.1378 20.2345C22.5913 20.5284 23.8976 21.3179 24.8334 22.4682C25.7693 23.6184 26.2766 25.058 26.2687 26.5408H28.8487C28.8487 24.1594 27.9027 21.8756 26.2188 20.1917C24.5349 18.5078 22.2511 17.5618 19.8697 17.5618C17.4883 17.5618 15.2044 18.5078 13.5205 20.1917C11.8366 21.8756 10.8906 24.1594 10.8906 26.5408Z" fill="black"/>
</g>
<g id="Group_3">
<path id="Vector_5" d="M38.4238 31.3948H39.8086C40.0366 31.3914 40.2643 31.4159 40.4864 31.4677C40.6769 31.5032 40.858 31.5776 41.0184 31.6864C41.1621 31.7928 41.2772 31.9329 41.3537 32.0945C41.5095 32.4953 41.5095 32.94 41.3537 33.3408C41.2774 33.5106 41.1596 33.6585 41.0111 33.7708C40.8558 33.8929 40.6773 33.9822 40.4864 34.0332C40.2656 34.0937 40.0375 34.1231 39.8086 34.1206H38.9996V35.9062H38.4238V31.3948ZM39.743 33.6469C40.0503 33.6683 40.3565 33.5917 40.6176 33.4283C40.7197 33.3383 40.7988 33.2252 40.8482 33.0984C40.8977 32.9716 40.916 32.8348 40.9018 32.6994C40.9179 32.5707 40.8994 32.4401 40.8482 32.3209C40.7969 32.2018 40.7148 32.0984 40.6103 32.0216C40.3446 31.8785 40.0441 31.8128 39.743 31.8321H39.0142V33.625L39.743 33.6469Z" fill="#004676"/>
<path id="Vector_6" d="M41.7914 34.2446C41.7872 33.996 41.8292 33.7489 41.9153 33.5157C41.9927 33.3107 42.109 33.1226 42.2578 32.9618C42.3963 32.8164 42.5623 32.7 42.7462 32.6193C42.9339 32.5437 43.1341 32.5041 43.3365 32.5027C43.5365 32.504 43.7344 32.5436 43.9196 32.6193C44.1055 32.7 44.2739 32.8164 44.4152 32.9618C44.5615 33.1245 44.6776 33.3121 44.7577 33.5157C44.8401 33.7499 44.882 33.9964 44.8816 34.2446C44.883 34.4929 44.8411 34.7395 44.7577 34.9734C44.6793 35.1757 44.5631 35.3612 44.4152 35.52C44.2769 35.667 44.1097 35.7838 43.924 35.8628C43.7383 35.9418 43.5383 35.9815 43.3365 35.9792C43.1338 35.9818 42.9327 35.9421 42.7462 35.8625C42.5609 35.7844 42.3944 35.6676 42.2578 35.52C42.1075 35.3631 41.9909 35.1771 41.9153 34.9734C41.8285 34.7404 41.7865 34.4931 41.7914 34.2446ZM42.3745 34.2446C42.3724 34.4193 42.3944 34.5934 42.4401 34.762C42.4772 34.9078 42.5442 35.0443 42.6368 35.1629C42.7168 35.2732 42.8217 35.3631 42.9429 35.4253C43.0636 35.4906 43.1993 35.5233 43.3365 35.52C43.4735 35.5217 43.6088 35.4891 43.7301 35.4253C43.8513 35.3631 43.9562 35.2732 44.0362 35.1629C44.1236 35.0422 44.1879 34.9062 44.2257 34.762C44.2773 34.5945 44.3019 34.4198 44.2985 34.2446C44.3019 34.0645 44.2773 33.885 44.2257 33.7125C44.1849 33.5671 44.1209 33.4293 44.0362 33.3044C43.9541 33.196 43.8497 33.1065 43.7301 33.042C43.6088 32.9782 43.4735 32.9456 43.3365 32.9473C43.1993 32.944 43.0636 32.9767 42.9429 33.042C42.8233 33.1065 42.7189 33.196 42.6368 33.3044C42.5469 33.4273 42.4802 33.5656 42.4401 33.7125C42.392 33.8858 42.3675 34.0648 42.3672 34.2446H42.3745Z" fill="#004676"/>
<path id="Vector_7" d="M45.1875 32.561H45.7706L46.2662 34.4924C46.2662 34.6527 46.3317 34.8131 46.3682 34.9661C46.4046 35.1192 46.4265 35.265 46.4629 35.4253L46.5723 34.9589C46.5723 34.8058 46.6451 34.6527 46.6889 34.4924L47.2063 32.561H47.7529L48.2777 34.4924C48.2777 34.6527 48.3579 34.8131 48.3943 34.9661C48.4307 35.1192 48.4745 35.265 48.5109 35.4253C48.5498 35.265 48.5862 35.1119 48.6202 34.9661C48.6202 34.8131 48.6858 34.6527 48.7223 34.4924L49.2106 32.561H49.8082L48.9191 35.9063H48.1902L47.7092 34.1134L47.6218 33.6397C47.6218 33.4794 47.5489 33.319 47.5051 33.1514L47.3958 33.6397C47.3958 33.8 47.3229 33.9604 47.2719 34.1207L46.8055 35.9063H46.1495L45.1875 32.561Z" fill="#004676"/>
<path id="Vector_8" d="M50.1144 34.2445C50.1098 33.9959 50.1518 33.7487 50.2383 33.5157C50.3159 33.3124 50.4295 33.1248 50.5735 32.9617C50.7074 32.8143 50.8714 32.6975 51.0545 32.6192C51.2281 32.5386 51.417 32.4964 51.6084 32.4953C51.8034 32.4921 51.997 32.5294 52.1769 32.6046C52.34 32.6752 52.4828 32.7854 52.5923 32.9253C52.7151 33.0693 52.8047 33.2385 52.8547 33.4209C52.9155 33.6292 52.945 33.8453 52.9422 34.0623C52.9507 34.1666 52.9507 34.2714 52.9422 34.3757H50.6683C50.6705 34.6916 50.79 34.9955 51.0035 35.2284C51.1031 35.3343 51.2243 35.4177 51.3588 35.473C51.4933 35.5283 51.638 35.5543 51.7834 35.5491C51.9347 35.5515 52.0853 35.5268 52.2279 35.4762C52.3628 35.4264 52.4923 35.3629 52.6142 35.2867L52.811 35.6584C52.6565 35.7544 52.4929 35.835 52.3227 35.8989C52.1264 35.9694 51.919 36.004 51.7105 36.0009C51.496 36.0031 51.2831 35.9635 51.0837 35.8843C50.8906 35.8055 50.7166 35.6863 50.5735 35.5345C50.4226 35.3794 50.308 35.1927 50.2383 34.9879C50.148 34.7508 50.1059 34.498 50.1144 34.2445ZM52.4466 33.9894C52.4654 33.7098 52.3882 33.4321 52.2279 33.2023C52.1563 33.1114 52.0641 33.0389 51.9589 32.9907C51.8537 32.9426 51.7386 32.9201 51.623 32.9253C51.5052 32.9278 51.389 32.9525 51.2805 32.9982C51.1712 33.0503 51.0724 33.1219 50.9889 33.2095C50.8963 33.3029 50.8243 33.4146 50.7776 33.5375C50.7132 33.6804 50.6737 33.8332 50.661 33.9894H52.4466Z" fill="#004676"/>
<path id="Vector_9" d="M53.6273 32.561H54.0938L54.1448 33.1659C54.2493 32.975 54.3905 32.8065 54.5602 32.6703C54.7115 32.5495 54.8987 32.4828 55.0923 32.4808C55.2153 32.4773 55.3375 32.5023 55.4494 32.5537L55.3401 33.042L55.187 33.0055H55.0194C54.8573 33.0133 54.7017 33.072 54.5748 33.1732C54.389 33.3349 54.2504 33.5439 54.1739 33.7781V35.9208H53.6055L53.6273 32.561Z" fill="#004676"/>
<path id="Vector_10" d="M55.5589 34.2445C55.5567 33.9955 55.6012 33.7482 55.6901 33.5157C55.765 33.3111 55.8789 33.123 56.0254 32.9617C56.1592 32.8143 56.3233 32.6975 56.5064 32.6192C56.68 32.5386 56.8689 32.4964 57.0603 32.4953C57.2553 32.4921 57.4489 32.5294 57.6288 32.6046C57.7919 32.6752 57.9347 32.7854 58.0442 32.9253C58.1644 33.071 58.2537 33.2396 58.3066 33.4209C58.3674 33.6292 58.3969 33.8453 58.3941 34.0623C58.4026 34.1666 58.4026 34.2714 58.3941 34.3757H56.1201C56.1238 34.69 56.2401 34.9926 56.4481 35.2284C56.5491 35.3345 56.6715 35.418 56.8072 35.4733C56.9429 35.5285 57.0888 35.5544 57.2352 35.5491C57.3842 35.5516 57.5324 35.5269 57.6725 35.4762C57.8104 35.4279 57.9424 35.3643 58.0661 35.2867L58.2629 35.6584C58.1084 35.7544 57.9448 35.835 57.7746 35.8989C57.5779 35.9681 57.3708 36.0026 57.1624 36.0009C56.9477 36.0044 56.7346 35.9647 56.5356 35.8843C56.3424 35.8055 56.1685 35.6863 56.0254 35.5345C55.875 35.3776 55.7585 35.1916 55.6828 34.9879C55.5962 34.7498 55.5542 34.4978 55.5589 34.2445ZM57.8985 33.9894C57.9172 33.7098 57.8401 33.4321 57.6798 33.2023C57.6082 33.1114 57.516 33.0389 57.4108 32.9907C57.3056 32.9426 57.1905 32.9201 57.0749 32.9253C56.9552 32.926 56.8371 32.9516 56.7279 33.0005C56.6187 33.0495 56.5209 33.1207 56.4408 33.2095C56.3484 33.3045 56.2743 33.4157 56.2222 33.5375C56.1603 33.6808 56.1233 33.8336 56.1129 33.9894H57.8985Z" fill="#004676"/>
<path id="Vector_11" d="M58.8388 34.2445C58.8368 33.9962 58.8788 33.7494 58.9627 33.5157C59.0343 33.3105 59.143 33.1203 59.2834 32.9545C59.4137 32.8077 59.5724 32.6887 59.7498 32.6047C59.9206 32.5233 60.1073 32.481 60.2964 32.4808C60.4695 32.4777 60.6411 32.5126 60.7993 32.5828C60.9513 32.6637 61.0953 32.7589 61.2293 32.867V32.2986V31.0085H61.7978V35.9062H61.3314L61.2803 35.5127C61.1456 35.6444 60.9936 35.7572 60.8285 35.8479C60.6586 35.9404 60.468 35.9881 60.2746 35.9864C60.0825 35.9927 59.8915 35.9554 59.716 35.8771C59.5405 35.7988 59.3851 35.6817 59.2615 35.5345C58.9743 35.1671 58.8247 34.7107 58.8388 34.2445ZM59.4219 34.2445C59.403 34.5752 59.487 34.9037 59.6624 35.1847C59.7388 35.294 59.8418 35.3822 59.9616 35.4408C60.0814 35.4995 60.2142 35.5267 60.3475 35.5199C60.5011 35.5212 60.6521 35.4809 60.7847 35.4033C60.9419 35.314 61.0825 35.1981 61.2002 35.0608V33.3116C61.0772 33.1999 60.9369 33.1088 60.7847 33.0419C60.6576 32.9896 60.5214 32.9623 60.3839 32.9618C60.2538 32.9596 60.1254 32.9923 60.0122 33.0565C59.891 33.1187 59.7861 33.2086 59.7061 33.3189C59.6153 33.4396 59.5462 33.5753 59.502 33.7198C59.448 33.8869 59.4209 34.0616 59.4219 34.2372V34.2445Z" fill="#004676"/>
<path id="Vector_12" d="M64.0039 31.0085H64.5724V32.3714V32.9764C64.7227 32.8441 64.8893 32.7315 65.068 32.6411C65.2374 32.5551 65.4246 32.5101 65.6146 32.5099C65.8112 32.5063 66.0058 32.5488 66.1831 32.6338C66.349 32.7099 66.4922 32.828 66.5985 32.9764C66.7179 33.1351 66.8046 33.3159 66.8536 33.5084C66.9167 33.746 66.9462 33.9914 66.941 34.2372C66.9461 34.4971 66.9066 34.7559 66.8244 35.0025C66.7559 35.2097 66.6496 35.4024 66.511 35.571C66.3814 35.7204 66.2227 35.8419 66.0446 35.9281C65.8733 36.0071 65.6866 36.047 65.498 36.0447C65.3317 36.0425 65.1678 36.0053 65.017 35.9354C64.8424 35.865 64.6819 35.7638 64.5432 35.6365L64.4995 35.9645H64.0403L64.0039 31.0085ZM64.5724 35.1628C64.701 35.2779 64.8491 35.3692 65.0097 35.4325C65.1305 35.4805 65.2587 35.5077 65.3887 35.5127C65.5213 35.5161 65.6523 35.4834 65.7676 35.4179C65.8889 35.3557 65.9937 35.2658 66.0738 35.1555C66.1622 35.0291 66.2287 34.8886 66.2705 34.7401C66.3227 34.5602 66.3473 34.3735 66.3434 34.1862C66.3459 34.0172 66.3288 33.8484 66.2924 33.6833C66.2684 33.5454 66.2163 33.4139 66.1393 33.297C66.0693 33.1907 65.9742 33.1031 65.8624 33.0419C65.7381 32.98 65.6003 32.95 65.4615 32.9545C65.1193 32.9894 64.8024 33.1505 64.5724 33.4064V35.1628Z" fill="#004676"/>
<path id="Vector_13" d="M67.5548 36.8537C67.5982 36.8606 67.6425 36.8606 67.686 36.8537C67.7739 36.8556 67.8611 36.8383 67.9417 36.8031C68.0222 36.7679 68.0942 36.7155 68.1524 36.6496C68.2821 36.5003 68.3811 36.327 68.4439 36.1394L68.5168 35.8916L67.1758 32.5391H67.7588L68.4439 34.3903C68.4877 34.536 68.546 34.6891 68.6043 34.8567C68.6626 35.0243 68.7136 35.1774 68.7646 35.3304C68.8083 35.1847 68.8594 35.0243 68.9031 34.8567C68.9468 34.6891 68.9978 34.536 69.0416 34.3903L69.6392 32.5391H70.215L68.9541 36.1832C68.8987 36.3427 68.8329 36.4986 68.7573 36.6496C68.6886 36.7835 68.6002 36.9064 68.4949 37.014C68.3938 37.1133 68.2784 37.1968 68.1524 37.2618C68.0121 37.3221 67.8605 37.3519 67.7078 37.3493C67.6351 37.3572 67.5618 37.3572 67.4892 37.3493C67.428 37.3445 67.3684 37.3272 67.3143 37.2983L67.4236 36.8537H67.5548Z" fill="#004676"/>
</g>
<g id="Group_4">
<path id="Vector_14" d="M52.4111 11.1189V17.3066H50.7057V11.1189H48.3516V9.54468H54.787V11.1189H52.4111Z" fill="black"/>
<path id="Vector_15" d="M60.3488 17.3069L58.6871 14.8216H57.3461V17.3069H55.6406V9.54492H59.19C61.0266 9.54492 62.1053 10.507 62.1053 12.1031C62.1297 12.6306 61.9804 13.1515 61.6802 13.586C61.38 14.0205 60.9456 14.3444 60.4435 14.5082L62.3458 17.285L60.3488 17.3069ZM60.3852 12.2051C60.3852 11.4763 59.8751 11.0973 59.0442 11.0973H57.3461V13.3129H59.0734C59.9042 13.3129 60.3852 12.8683 60.3852 12.2124V12.2051Z" fill="black"/>
<path id="Vector_16" d="M66.667 17.4305C64.5826 17.4305 63.3145 16.2644 63.3145 13.9759V9.54468H65.0199V13.9176C65.0199 15.1857 65.654 15.8344 66.6962 15.8344C67.7384 15.8344 68.3652 15.2076 68.3652 13.9759V9.54468H70.0779V13.9176C70.0779 16.2717 68.7587 17.4305 66.667 17.4305Z" fill="black"/>
<path id="Vector_17" d="M74.3568 17.416C73.1439 17.4207 71.9717 16.9798 71.0625 16.1771L72.0756 14.9672C72.7062 15.5504 73.5273 15.8845 74.3859 15.9074C75.1147 15.9074 75.5083 15.6304 75.5083 15.1786C75.5083 14.7413 75.2459 14.5226 73.9486 14.1874C72.3817 13.7938 71.3759 13.3565 71.3759 11.8187C71.3759 10.4121 72.5056 9.4792 74.0871 9.4792C75.1454 9.45498 76.1782 9.80611 77.0024 10.4704L76.1205 11.7531C75.5329 11.3136 74.8273 11.0598 74.0944 11.0243C73.4457 11.0243 73.1032 11.3158 73.1032 11.6948C73.1032 12.205 73.4312 12.3726 74.7722 12.7152C76.3464 13.1306 77.2356 13.6918 77.2356 15.0474C77.2064 16.556 76.0476 17.416 74.3568 17.416Z" fill="black"/>
<path id="Vector_18" d="M81.5416 11.1192V17.3069H79.8361V11.1192H77.5039V9.54492H83.9394V11.1192H81.5416Z" fill="black"/>
<path id="Vector_19" d="M89.231 14.9234H85.0913C85.1452 15.264 85.3248 15.5719 85.5947 15.7865C85.8645 16.001 86.2051 16.1066 86.549 16.0823C86.8206 16.0884 87.0906 16.0377 87.3416 15.9336C87.5926 15.8294 87.8191 15.674 88.0066 15.4773L88.9541 16.3373C88.5422 16.8244 87.9918 17.1745 87.3762 17.3411C86.7605 17.5077 86.1087 17.483 85.5074 17.2702C84.9061 17.0574 84.3839 16.6666 84.0101 16.1497C83.6364 15.6329 83.4288 15.0145 83.415 14.3768C83.3974 13.981 83.4595 13.5857 83.5976 13.2143C83.7356 12.8429 83.9469 12.503 84.2188 12.2148C84.4906 11.9266 84.8176 11.6959 85.1804 11.5365C85.5431 11.3771 85.9341 11.2921 86.3303 11.2866C88.32 11.2866 89.2456 12.8244 89.2456 14.5153C89.2529 14.6683 89.2383 14.7631 89.231 14.9234ZM86.3157 12.6058C85.9821 12.6147 85.6642 12.7497 85.4262 12.9837C85.1881 13.2177 85.0476 13.5332 85.033 13.8666H87.5693C87.5677 13.5402 87.4403 13.227 87.2136 12.9922C86.9869 12.7573 86.6783 12.6189 86.3522 12.6058H86.3157Z" fill="black"/>
</g>
<path id="Vector_20" d="M73.2701 32.1673H71.8125V31.4385H75.5513V32.1673H74.0937V35.8551H73.2701V32.1673ZM76.3385 35.8551V33.4136C76.5226 33.3178 76.7288 33.2725 76.9361 33.2824C77.1005 33.2834 77.2643 33.303 77.4244 33.3407L77.6212 32.6848C77.3864 32.6069 77.1395 32.5723 76.8924 32.5827C76.4055 32.5744 75.931 32.7369 75.5513 33.0419V35.8551H76.3385ZM80.3178 32.692V35.1482C80.1195 35.2336 79.9068 35.2806 79.691 35.2866C79.0497 35.2866 78.9112 34.9951 78.9112 34.4704V32.692H78.1387V34.6817C78.1387 35.4616 78.5832 35.9572 79.5963 35.9572C80.1287 35.9651 80.6554 35.8478 81.1341 35.6146V32.6993L80.3178 32.692ZM81.7755 35.4616C82.1161 35.7705 82.562 35.9374 83.0217 35.928C83.7506 35.928 84.2462 35.5053 84.2462 34.966C84.2462 33.9383 82.6865 33.9893 82.6865 33.5083C82.6865 33.3115 82.8833 33.2241 83.0946 33.2241C83.3812 33.222 83.6596 33.3199 83.8818 33.501L84.1733 32.9034C83.8762 32.6489 83.4926 32.5184 83.1019 32.539C82.4095 32.539 81.8702 32.8888 81.8702 33.4865C81.8702 34.5141 83.4299 34.4558 83.4299 34.9441C83.4299 35.1336 83.2404 35.2356 83.0145 35.2356C82.6902 35.2286 82.3795 35.1043 82.1399 34.8858L81.7755 35.4616ZM84.9094 34.6817C84.9035 34.8527 84.9351 35.0229 85.002 35.1804C85.0688 35.3379 85.1693 35.4789 85.2963 35.5934C85.4234 35.708 85.574 35.7934 85.7375 35.8437C85.9011 35.8939 86.0737 35.9078 86.2431 35.8843C86.3256 35.89 86.4084 35.89 86.4909 35.8843V35.1555C86.4425 35.1608 86.3936 35.1608 86.3452 35.1555C86.2623 35.164 86.1785 35.1545 86.0997 35.1275C86.0209 35.1006 85.9488 35.0568 85.8885 34.9993C85.8282 34.9418 85.7811 34.8719 85.7505 34.7944C85.7199 34.7169 85.7064 34.6337 85.7111 34.5505V33.3771H86.4399V32.6993H85.7111V31.7737H84.9313L84.9094 34.6817ZM92.0518 35.8551V33.4136C92.2359 33.3178 92.4421 33.2725 92.6495 33.2824C92.8139 33.2834 92.9777 33.303 93.1378 33.3407L93.3345 32.6848C93.0998 32.6069 92.8528 32.5723 92.6057 32.5827C92.1188 32.5744 91.6443 32.7369 91.2647 33.0419V35.8551H92.0518ZM95.1347 32.6265C94.6998 32.6265 94.2827 32.7992 93.9752 33.1068C93.6676 33.4143 93.4949 33.8314 93.4949 34.2663C93.4949 34.7012 93.6676 35.1183 93.9752 35.4258C94.2827 35.7334 94.6998 35.9061 95.1347 35.9061C95.3719 35.9117 95.6077 35.8694 95.8281 35.7818C96.0485 35.6941 96.2489 35.5629 96.4174 35.396L96.1186 34.8421C95.8695 35.08 95.5442 35.222 95.2003 35.2429C95.0706 35.2459 94.9417 35.2225 94.8213 35.174C94.701 35.1256 94.5918 35.0531 94.5004 34.961C94.409 34.8689 94.3373 34.7592 94.2897 34.6385C94.2422 34.5178 94.2197 34.3887 94.2237 34.259C94.2187 34.1316 94.2398 34.0045 94.2858 33.8856C94.3319 33.7667 94.4018 33.6585 94.4912 33.5677C94.5807 33.4768 94.6879 33.4053 94.806 33.3575C94.9242 33.3097 95.051 33.2866 95.1785 33.2897C95.4805 33.2965 95.7691 33.4161 95.9874 33.6249L96.3373 33.0929C96.1806 32.9354 95.9926 32.8125 95.7855 32.7322C95.5783 32.6518 95.3566 32.6158 95.1347 32.6265ZM89.6176 34.7109H88.1599L87.7081 35.8333H86.8991L88.4296 31.4603H89.2459L90.7764 35.8333H89.9601L89.6176 34.7109ZM89.3916 34.0695L88.8887 32.6119L88.3859 34.0695H89.3916Z" fill="#004676"/>
<path id="Vector_21" d="M38.4316 29.2812H96.3801" stroke="#231F20" stroke-width="0.36441" stroke-miterlimit="10"/>
<g id="Group_5">
<path id="Vector_22" d="M39.6055 20.2368H40.378L41.2818 23.2906C41.3838 23.6258 41.4785 23.9392 41.5514 24.2307C41.6243 24.5223 41.7263 24.8284 41.8357 25.1636C41.945 24.8284 42.0324 24.515 42.1126 24.2307C42.1928 23.9465 42.2875 23.6258 42.3823 23.2906L43.286 20.2368H44.0148L42.2219 25.8925H41.4421L39.6055 20.2368Z" fill="#231F20"/>
<path id="Vector_23" d="M44.3435 23.8078C44.3385 23.4967 44.3929 23.1875 44.5039 22.8968C44.5937 22.6276 44.7376 22.3796 44.9266 22.168C45.0941 21.9831 45.2974 21.8343 45.5242 21.7307C45.7543 21.6317 46.0026 21.582 46.2531 21.5849C46.5031 21.578 46.7518 21.6252 46.9819 21.7234C47.1858 21.8106 47.3658 21.9456 47.5066 22.1169C47.6518 22.3012 47.7606 22.5115 47.8273 22.7364C47.9053 23.0015 47.9446 23.2764 47.9439 23.5527C47.9531 23.6813 47.9531 23.8104 47.9439 23.939H45.0432C45.0405 24.3386 45.18 24.7261 45.4368 25.0322C45.5636 25.1637 45.7168 25.2668 45.8865 25.3347C46.0561 25.4025 46.2382 25.4336 46.4207 25.4258C46.6089 25.4275 46.7961 25.398 46.9746 25.3383C47.1467 25.2788 47.3108 25.198 47.4629 25.0978L47.7107 25.5643C47.5174 25.6865 47.3123 25.789 47.0985 25.8704C46.8537 25.9611 46.5942 26.0056 46.3332 26.0015C46.0609 26.0037 45.7909 25.9516 45.5388 25.8485C45.2939 25.7464 45.0729 25.5946 44.8898 25.4026C44.7066 25.2107 44.5653 24.9828 44.4747 24.7334C44.3766 24.4351 44.3321 24.1217 44.3435 23.8078ZM47.2588 23.4871C47.2823 23.1359 47.1873 22.7869 46.9892 22.4959C46.9006 22.3889 46.7891 22.3033 46.663 22.2452C46.5368 22.1872 46.3992 22.1583 46.2603 22.1607C46.1149 22.16 45.9709 22.1898 45.8376 22.2481C45.6966 22.3084 45.5699 22.3978 45.4659 22.5105C45.3523 22.6293 45.2609 22.7675 45.1963 22.9186C45.1224 23.1007 45.0733 23.2919 45.0505 23.4871H47.2588Z" fill="#231F20"/>
<path id="Vector_24" d="M48.9344 21.7016H49.5174L49.583 22.4304C49.7119 22.1869 49.8907 21.9734 50.1078 21.8036C50.2971 21.6498 50.5344 21.5673 50.7783 21.5704C50.9301 21.5697 51.0808 21.5968 51.2229 21.6506L51.0844 22.2774C51.0229 22.2545 50.9595 22.2374 50.8949 22.2263C50.8247 22.218 50.7537 22.218 50.6835 22.2263C50.4777 22.2362 50.2806 22.313 50.1223 22.445C49.8957 22.6414 49.7227 22.8922 49.6194 23.1738V25.8631H48.8906L48.9344 21.7016Z" fill="#231F20"/>
<path id="Vector_25" d="M52.2856 20.8345C52.1597 20.8389 52.037 20.7945 51.9431 20.7106C51.8954 20.6706 51.8575 20.6203 51.8322 20.5635C51.8069 20.5066 51.795 20.4448 51.7973 20.3826C51.7944 20.3193 51.8061 20.2562 51.8313 20.1981C51.8566 20.14 51.8948 20.0884 51.9431 20.0474C52.0385 19.9659 52.1602 19.9219 52.2856 19.9235C52.4134 19.9208 52.5378 19.9648 52.6354 20.0474C52.6825 20.0894 52.7199 20.1412 52.745 20.199C52.7702 20.2569 52.7825 20.3195 52.7812 20.3826C52.782 20.4446 52.7693 20.5059 52.7442 20.5625C52.719 20.6191 52.6819 20.6696 52.6354 20.7106C52.5397 20.7963 52.414 20.8408 52.2856 20.8345ZM51.9285 21.7018H52.6573V25.8925H51.9285V21.7018Z" fill="#231F20"/>
<path id="Vector_26" d="M55.9372 20.3314C55.7894 20.2601 55.6275 20.2228 55.4634 20.2221C55.0772 20.2221 54.8804 20.499 54.8804 21.0384V21.7016H55.7695V22.2774H54.9095V25.9215H54.1807V22.2774H53.5977V21.7453L54.1734 21.7016V21.0384C54.152 20.675 54.2548 20.3152 54.465 20.018C54.5813 19.8883 54.726 19.7873 54.8878 19.7228C55.0497 19.6583 55.2242 19.6322 55.3978 19.6463C55.5226 19.6469 55.647 19.6591 55.7695 19.6828C55.8814 19.7081 55.991 19.7422 56.0975 19.7848L55.9372 20.3314Z" fill="#231F20"/>
<path id="Vector_27" d="M56.9371 20.8342C56.8087 20.8406 56.683 20.7961 56.5873 20.7103C56.5408 20.6694 56.5037 20.6189 56.4785 20.5623C56.4534 20.5057 56.4407 20.4443 56.4415 20.3824C56.4402 20.3193 56.4525 20.2566 56.4777 20.1988C56.5028 20.1409 56.5402 20.0892 56.5873 20.0471C56.6849 19.9646 56.8093 19.9205 56.9371 19.9232C57.0647 19.9218 57.1887 19.9657 57.2869 20.0471C57.3331 20.0895 57.3693 20.1415 57.3933 20.1994C57.4172 20.2573 57.4281 20.3198 57.4254 20.3824C57.4276 20.4438 57.4163 20.505 57.3924 20.5616C57.3685 20.6183 57.3325 20.669 57.2869 20.7103C57.1904 20.7947 57.0652 20.8391 56.9371 20.8342ZM56.5727 21.7015H57.3015V25.8922H56.5727V21.7015Z" fill="#231F20"/>
<path id="Vector_28" d="M58.3868 23.8079C58.3876 23.4967 58.4444 23.1881 58.5544 22.8969C58.6468 22.6289 58.7903 22.3813 58.9772 22.1681C59.1486 21.9845 59.354 21.836 59.5821 21.7308C59.812 21.6312 60.0604 21.5815 60.3109 21.585C60.5611 21.5762 60.8102 21.6235 61.0397 21.7235C61.2469 21.8087 61.4297 21.9439 61.5718 22.1171C61.7169 22.3014 61.8258 22.5116 61.8924 22.7366C61.9679 23.002 62.0047 23.2769 62.0018 23.5528C62.0105 23.6815 62.0105 23.8105 62.0018 23.9391H59.0792C59.0881 24.3374 59.2378 24.7196 59.5019 25.0178C59.6276 25.1487 59.7796 25.2515 59.948 25.3194C60.1163 25.3872 60.2972 25.4186 60.4785 25.4113C60.6691 25.4131 60.8587 25.3835 61.0397 25.3239C61.2113 25.263 61.3752 25.1823 61.528 25.0834L61.7758 25.5498C61.5825 25.672 61.3774 25.7746 61.1636 25.8559C60.9165 25.9473 60.6545 25.9917 60.3911 25.9871C60.1212 25.9885 59.8537 25.9364 59.6039 25.8341C59.3646 25.7332 59.1468 25.5872 58.9626 25.404C58.7787 25.2052 58.6351 24.9725 58.5399 24.719C58.436 24.4266 58.3842 24.1182 58.3868 23.8079ZM61.3021 23.4873C61.3256 23.136 61.2306 22.787 61.0324 22.4961C60.9439 22.3891 60.8324 22.3034 60.7062 22.2454C60.5801 22.1873 60.4425 22.1584 60.3036 22.1608C60.1558 22.1602 60.0094 22.19 59.8736 22.2483C59.7358 22.3105 59.6119 22.3997 59.5092 22.5106C59.3956 22.6294 59.3042 22.7677 59.2395 22.9188C59.1619 23.0996 59.1128 23.2914 59.0938 23.4873H61.3021Z" fill="#231F20"/>
<path id="Vector_29" d="M62.6722 23.8078C62.668 23.4974 62.7199 23.1888 62.8253 22.8968C62.911 22.6304 63.0471 22.383 63.2261 22.168C63.3855 21.9837 63.5816 21.8348 63.8019 21.7307C64.0297 21.6239 64.2792 21.5715 64.5307 21.5776C64.7461 21.5735 64.9599 21.6157 65.1575 21.7015C65.354 21.7971 65.5377 21.9171 65.7041 22.0586L65.6677 21.3298V19.7483H66.3965V25.8922H65.8061L65.7478 25.4039C65.5576 25.5702 65.3439 25.7077 65.1138 25.8121C64.893 25.9406 64.6402 26.0038 64.385 25.9943C64.1443 26.0043 63.9047 25.9574 63.6856 25.8573C63.4665 25.7573 63.2741 25.6069 63.1241 25.4185C62.7913 24.9502 62.6316 24.3809 62.6722 23.8078ZM63.401 23.8078C63.3786 24.2226 63.4828 24.6344 63.6999 24.9885C63.7946 25.1253 63.9226 25.2359 64.0717 25.3098C64.2208 25.3838 64.3863 25.4186 64.5526 25.4112C64.7467 25.4114 64.9376 25.3611 65.1065 25.2655C65.3025 25.1531 65.4776 25.0076 65.6239 24.8355V22.649C65.475 22.5062 65.3023 22.3903 65.1138 22.3064C64.954 22.2412 64.7834 22.2066 64.6109 22.2044C64.446 22.2058 64.2838 22.2457 64.1372 22.321C63.9876 22.4032 63.8563 22.5148 63.7509 22.649C63.6359 22.8024 63.5495 22.9752 63.4958 23.1592C63.4332 23.367 63.4037 23.5835 63.4083 23.8005L63.401 23.8078Z" fill="#231F20"/>
<path id="Vector_30" d="M69.5756 20.2366H71.3102C71.5988 20.2356 71.8868 20.2624 72.1702 20.3168C72.4058 20.3665 72.6288 20.4632 72.8262 20.601C73.0103 20.7301 73.1563 20.9063 73.2489 21.1112C73.4527 21.6136 73.4527 22.1757 73.2489 22.6781C73.1568 22.8913 73.0112 23.0771 72.8262 23.2175C72.6281 23.3682 72.403 23.4795 72.163 23.5454C71.8838 23.6115 71.5968 23.6385 71.3102 23.6256H70.2972V25.8631H69.5684L69.5756 20.2366ZM71.2301 23.0644C71.6183 23.0943 72.0054 22.9943 72.3306 22.7802C72.4549 22.6713 72.552 22.5349 72.614 22.3817C72.676 22.2286 72.7013 22.063 72.6877 21.8983C72.7051 21.7369 72.6808 21.5736 72.617 21.4243C72.5531 21.275 72.452 21.1446 72.3233 21.0456C71.9872 20.8691 71.609 20.7884 71.2301 20.8124H70.2972V23.0644H71.2301Z" fill="#231F20"/>
<path id="Vector_31" d="M74.4793 21.7016H75.0696L75.1279 22.4304C75.2569 22.1869 75.4357 21.9733 75.6527 21.8036C75.8426 21.6509 76.0795 21.5685 76.3232 21.5704C76.4751 21.5689 76.6259 21.5961 76.7678 21.6505L76.6293 22.2773C76.5679 22.2545 76.5044 22.2374 76.4398 22.2263C76.3696 22.2171 76.2986 22.2171 76.2284 22.2263C76.0226 22.2362 75.8256 22.313 75.6673 22.4449C75.4406 22.6414 75.2676 22.8922 75.1644 23.1738V25.8631H74.4355L74.4793 21.7016Z" fill="#231F20"/>
<path id="Vector_32" d="M77.8405 20.8343C77.7171 20.8368 77.5973 20.7926 77.5052 20.7104C77.4587 20.6694 77.4217 20.6189 77.3965 20.5623C77.3713 20.5057 77.3587 20.4444 77.3595 20.3824C77.3581 20.3193 77.3705 20.2567 77.3956 20.1988C77.4208 20.1409 77.4582 20.0892 77.5052 20.0472C77.6062 19.959 77.7356 19.9104 77.8696 19.9104C78.0037 19.9104 78.1331 19.959 78.2341 20.0472C78.2802 20.0896 78.3165 20.1416 78.3404 20.1995C78.3643 20.2574 78.3753 20.3198 78.3725 20.3824C78.3747 20.4439 78.3634 20.505 78.3395 20.5617C78.3156 20.6183 78.2796 20.6691 78.2341 20.7104C78.1815 20.7585 78.119 20.7945 78.051 20.8159C77.983 20.8373 77.9112 20.8436 77.8405 20.8343ZM77.4761 21.7016H78.2049V25.8923H77.4761V21.7016Z" fill="#231F20"/>
<path id="Vector_33" d="M78.9609 21.7017H79.6898L80.4842 24.0849L80.681 24.7044C80.7465 24.9085 80.8121 25.1125 80.8704 25.3166C80.936 25.1125 80.9943 24.9085 81.0599 24.7044C81.1255 24.5003 81.1838 24.289 81.2494 24.0849L82.0438 21.7017H82.7727L81.315 25.8924H80.4915L78.9609 21.7017Z" fill="#231F20"/>
<path id="Vector_34" d="M83.2485 24.8064C83.2427 24.5899 83.2977 24.3762 83.4072 24.1894C83.5167 24.0026 83.6763 23.8503 83.868 23.7496C84.4808 23.4502 85.1474 23.2767 85.8285 23.2394C85.8429 23.1086 85.8429 22.9766 85.8285 22.8458C85.8021 22.7269 85.7553 22.6135 85.69 22.5106C85.6229 22.4126 85.5328 22.3326 85.4276 22.2774C85.298 22.2079 85.1518 22.1752 85.0049 22.1826C84.7693 22.1792 84.5357 22.2265 84.3198 22.3211C84.121 22.4077 83.9307 22.5126 83.7513 22.6345L83.4671 22.1389C83.6997 21.9977 83.9434 21.8758 84.1959 21.7745C84.4925 21.6557 84.8094 21.5963 85.1288 21.5996C85.3388 21.579 85.5505 21.6109 85.7451 21.6923C85.9397 21.7737 86.1111 21.9021 86.2439 22.066C86.4902 22.436 86.6103 22.8757 86.5865 23.3196V25.8923H86.0034L85.9451 25.3967C85.7468 25.5634 85.529 25.7053 85.2964 25.8194C85.0721 25.9389 84.8218 26.0015 84.5676 26.0016C84.2426 26.011 83.9258 25.8993 83.6785 25.6882C83.5443 25.5838 83.4358 25.45 83.3613 25.2971C83.2867 25.1443 83.2481 24.9764 83.2485 24.8064ZM83.9773 24.7553C83.9683 24.8522 83.9828 24.9499 84.0196 25.04C84.0564 25.13 84.1144 25.2099 84.1886 25.2728C84.3427 25.3786 84.5266 25.4322 84.7134 25.4259C84.9137 25.4269 85.1112 25.3794 85.2892 25.2874C85.4951 25.1729 85.686 25.0333 85.8576 24.872V23.7058C85.558 23.7396 85.261 23.7932 84.9685 23.8662C84.7654 23.9168 84.5696 23.9927 84.3854 24.0921C84.2564 24.1623 84.1482 24.2654 84.072 24.3909C84.0006 24.5 83.958 24.6254 83.9481 24.7553H83.9773Z" fill="#231F20"/>
<path id="Vector_35" d="M87.5611 23.8079C87.5538 23.4979 87.6032 23.1891 87.7069 22.8969C87.8078 22.6406 87.9561 22.4057 88.1442 22.2045C88.3272 22.0165 88.5484 21.8698 88.7928 21.7745C89.0241 21.6792 89.2716 21.6297 89.5217 21.6287C89.7726 21.6209 90.0219 21.6708 90.2505 21.7745C90.4371 21.8687 90.611 21.9863 90.7679 22.1243L90.4108 22.5835C90.2909 22.4781 90.1588 22.3876 90.0173 22.3138C89.8766 22.2451 89.7219 22.2102 89.5654 22.2118C89.3841 22.2125 89.2051 22.2523 89.0406 22.3284C88.8792 22.4082 88.7374 22.5227 88.6252 22.6637C88.5041 22.8153 88.4126 22.9883 88.3556 23.1738C88.2869 23.3882 88.2525 23.612 88.2535 23.8371C88.2497 24.0594 88.2817 24.2809 88.3483 24.493C88.4058 24.6746 88.4946 24.8448 88.6106 24.9959C88.7204 25.1344 88.8599 25.2464 89.0188 25.3238C89.185 25.4026 89.3669 25.4425 89.5508 25.4405C89.74 25.4409 89.9269 25.3986 90.0974 25.3166C90.2557 25.2366 90.4027 25.1361 90.5347 25.0177L90.8554 25.4842C90.6643 25.6491 90.4477 25.782 90.214 25.8777C89.9848 25.9801 89.7363 26.0322 89.4852 26.0308C89.22 26.0322 88.9573 25.9801 88.7127 25.8777C88.4743 25.7864 88.2599 25.6418 88.0859 25.455C87.9027 25.2542 87.7614 25.0188 87.6705 24.7627C87.5756 24.4538 87.5385 24.1302 87.5611 23.8079Z" fill="#231F20"/>
<path id="Vector_36" d="M91.7315 27.0875H91.8992C92.0105 27.093 92.1217 27.0728 92.224 27.0286C92.3263 26.9844 92.4172 26.9173 92.4895 26.8324C92.6526 26.6463 92.7743 26.4277 92.8466 26.1911L92.9414 25.885L91.2578 21.6797H91.9866L92.8393 23.9973L93.0434 24.5804C93.1163 24.7845 93.1819 24.9885 93.2475 25.1853C93.3131 24.9958 93.3714 24.7917 93.4297 24.5877C93.488 24.3836 93.5463 24.1868 93.6046 23.9973L94.3334 21.6797H95.0622L93.539 26.2421C93.4679 26.4388 93.3852 26.631 93.2912 26.8179C93.206 26.9868 93.0954 27.1416 92.9632 27.277C92.8381 27.4044 92.6928 27.5103 92.5332 27.5904C92.3559 27.6657 92.1647 27.7029 91.9721 27.6997C91.8823 27.7079 91.7921 27.7079 91.7024 27.6997C91.625 27.6856 91.5493 27.6637 91.4765 27.6341L91.6149 27.073L91.7315 27.0875Z" fill="#231F20"/>
</g>
</g>
<defs>
<clipPath id="clip0_250_706">
<rect width="103.274" height="32.7969" fill="white" transform="translate(0.976562 0.133789)"/>
</clipPath>
</defs>
</svg>
